<svg width="113" height="36" viewBox="0 0 113 36" fill="none" xmlns="http://www.w3.org/2000/svg">
<path d="M20.6501 30.8958V8.00187C20.6501 6.23592 19.1998 4.80835 17.4189 4.80835H14.7102V27.3322C14.7102 29.2991 16.3205 30.8958 18.304 30.8958H20.6501Z" fill="#C3EAC3"/>
<path d="M12.9399 11.0154H15.4353C17.3336 11.0154 18.8799 12.5487 18.8799 14.431V31.1917H16.747C14.6462 31.1917 12.9399 29.4997 12.9399 27.406V11.0154Z" fill="white"/>
<path d="M12.9399 11.0154H15.4353C17.3336 11.0154 18.8799 12.5487 18.8799 14.431V31.1917H16.747C14.6462 31.1917 12.9399 29.4997 12.9399 27.406V11.0154Z" fill="#E2E28A"/>
<path d="M17.1202 31.1916V22.6156C17.1202 20.8497 18.5599 19.4221 20.3408 19.4221H23.0602V27.628C23.0602 29.5949 21.4499 31.1916 19.4663 31.1916H17.1202Z" fill="white"/>
<path d="M17.1202 31.1916V22.6156C17.1202 20.8497 18.5599 19.4221 20.3408 19.4221H23.0602V27.628C23.0602 29.5949 21.4499 31.1916 19.4663 31.1916H17.1202Z" fill="#8FD894"/>
<path d="M74.3761 25.672C72.8307 25.672 71.5874 24.4451 71.5874 22.9201V10.055C73.1328 10.055 74.3761 11.2819 74.3761 12.8069V25.672Z" fill="#8FD894"/>
<path d="M84.2761 12.44L88.7845 20.1453V10.055C90.3299 10.055 91.5732 11.2819 91.5732 12.8069V25.672C89.8419 25.672 88.25 24.7661 87.3901 23.287L82.8701 15.5702V25.672C81.3247 25.672 80.0814 24.4451 80.0814 22.9201V10.055C81.8127 10.055 83.4162 10.9608 84.2761 12.44Z" fill="#8FD894"/>
<path d="M64.2439 22.9201H58.9918V12.8069C58.9918 11.2819 57.7485 10.055 56.2031 10.055V22.9201C56.2031 24.4451 57.4464 25.672 58.9918 25.672H67.0326C67.0326 24.147 65.7777 22.9201 64.2439 22.9201Z" fill="#8FD894"/>
<path d="M52.9496 21.7506L52.845 21.6932C51.6598 21.0167 50.1842 21.1199 49.0803 21.9226C48.1624 22.5761 47.012 22.9431 45.7803 22.8743C43.1775 22.7252 41.086 20.6154 40.9931 18.047C40.8769 15.1804 43.2124 12.8184 46.0941 12.8184C47.2328 12.8184 48.2902 13.1853 49.1384 13.8159C50.219 14.6071 51.6831 14.6644 52.8567 13.9994L52.938 13.9535C51.5437 11.58 48.906 9.99769 45.9082 10.0665C41.6786 10.1582 38.2392 13.5866 38.1811 17.7603C38.123 22.129 41.6786 25.6835 46.0941 25.6835C49.0222 25.672 51.5901 24.0897 52.9496 21.7506Z" fill="#8FD894"/>
<path d="M108.514 16.4873H103.518C103.518 18.0123 104.761 19.2392 106.307 19.2392H108.421C107.806 21.3375 105.842 22.874 103.518 22.874C100.636 22.874 98.3124 20.512 98.417 17.6454C98.5216 15.077 100.613 12.9672 103.216 12.8181C104.459 12.7493 105.598 13.1163 106.516 13.7698C107.62 14.5725 109.095 14.6757 110.292 13.9992L110.374 13.9533C109.002 11.6142 106.446 10.0433 103.518 10.0433C99.0212 10.0433 95.4075 13.7354 95.6167 18.2187C95.8026 22.209 98.9515 25.3851 102.995 25.6489C107.12 25.9126 110.629 23.0575 111.315 19.2278C111.303 17.7142 110.06 16.4873 108.514 16.4873Z" fill="#8FD894"/>
</svg>
